<svg width="25" height="24" viewBox="0 0 25 24" fill="none" xmlns="http://www.w3.org/2000/svg">
<g clip-path="url(#clip0_87_503)">
<path d="M14.534 10.0907C15.5884 11.1452 15.5884 12.8547 14.534 13.9091C13.4796 14.9635 11.77 14.9635 10.7156 13.9091C9.6612 12.8547 9.6612 11.1452 10.7156 10.0907C11.77 9.03632 13.4796 9.03632 14.534 10.0907" stroke="#BDBDBD" stroke-width="1.5" stroke-linecap="round" stroke-linejoin="round"/>
<path d="M5.87487 12C5.87487 12.297 5.90187 12.594 5.93787 12.882L4.34987 14.124C3.99787 14.4 3.90187 14.893 4.12587 15.28L5.53787 17.723C5.76087 18.11 6.23487 18.273 6.64987 18.107L8.07187 17.536C8.35287 17.423 8.66587 17.468 8.91787 17.635C9.13787 17.781 9.36587 17.915 9.60187 18.035C9.87187 18.172 10.0679 18.417 10.1109 18.717L10.3279 20.23C10.3909 20.672 10.7699 21 11.2159 21H14.0329C14.4789 21 14.8579 20.672 14.9209 20.23L15.1379 18.718C15.1809 18.418 15.3789 18.171 15.6499 18.035C15.8849 17.917 16.1119 17.784 16.3309 17.639C16.5849 17.471 16.8989 17.423 17.1809 17.537L18.5999 18.107C19.0139 18.273 19.4879 18.11 19.7119 17.723L21.1239 15.28C21.3479 14.893 21.2519 14.399 20.8999 14.124L19.3119 12.882C19.3479 12.594 19.3749 12.297 19.3749 12C19.3749 11.703 19.3479 11.406 19.3119 11.118L20.8999 9.876C21.2519 9.6 21.3479 9.107 21.1239 8.72L19.7119 6.277C19.4889 5.89 19.0149 5.727 18.5999 5.893L17.1809 6.463C16.8989 6.576 16.5849 6.529 16.3309 6.361C16.1119 6.216 15.8849 6.083 15.6499 5.965C15.3789 5.829 15.1809 5.582 15.1379 5.282L14.9219 3.77C14.8589 3.328 14.4799 3 14.0339 3H11.2169C10.7709 3 10.3919 3.328 10.3289 3.77L10.1109 5.284C10.0679 5.583 9.87087 5.829 9.60187 5.966C9.36587 6.086 9.13787 6.221 8.91787 6.366C8.66487 6.532 8.35187 6.577 8.07087 6.464L6.64987 5.893C6.23487 5.727 5.76087 5.89 5.53787 6.277L4.12587 8.72C3.90187 9.107 3.99787 9.601 4.34987 9.876L5.93787 11.118C5.90187 11.406 5.87487 11.703 5.87487 12V12Z" stroke="#BDBDBD" stroke-width="1.5" stroke-linecap="round" stroke-linejoin="round"/>
</g>
<defs>
<clipPath id="clip0_87_503">
<rect width="24" height="24" fill="white" transform="translate(0.625)"/>
</clipPath>
</defs>
</svg>
